<svg width="1280" height="720" viewBox="0 0 1280 720" fill="none" xmlns="http://www.w3.org/2000/svg">
<rect width="1280" height="720" fill="#FF9E45"/>
<path d="M523.358 376.267V320.35H542.071V304.31H523.358V300.819C523.358 295.844 526.699 293.839 531.823 293.839C534.274 293.839 536.947 294.21 538.952 295.027V280.175C535.833 278.839 531.972 278.022 527.368 278.022C512.442 278.022 504.719 286.116 504.719 300.374V304.31H490.238V320.35H504.793V376.267H523.358ZM570.512 376.267V279.507H551.65V376.267H570.512Z" fill="black"/>
<path d="M630.068 376.266H645.291V330.968C645.291 313.295 634.226 302.973 615.365 302.973C597.988 302.973 586.032 313.74 584.918 330.3H601.775C602.444 322.206 607.27 317.527 615.365 317.527C623.162 317.527 627.766 322.206 627.766 330.3V334.607C623.31 334.087 619.82 333.79 615.81 333.79C594.795 333.79 583.508 341.365 583.508 355.325C583.508 368.766 593.458 377.529 608.459 377.529C618.261 377.529 625.464 374.039 630.142 367.281L630.068 376.266ZM601.107 354.805C601.107 348.345 606.379 345.003 616.998 345.003C620.266 345.003 623.31 345.3 627.766 345.969V351.092C627.766 359.41 621.974 364.682 612.394 364.682C605.414 364.682 601.107 360.895 601.107 354.805Z" fill="black"/>
<path d="M733.214 340.325C733.214 319.161 720.664 302.973 701.283 302.973C692.149 302.973 684.203 307.131 678.634 314.854V304.309H661.406V402.257H680.119V366.984C685.54 373.964 692.817 377.603 701.283 377.603C720.738 377.603 733.214 361.563 733.214 340.325ZM713.981 340.325C713.981 354.063 706.332 360.969 697.124 360.969C687.99 360.969 680.267 353.989 680.267 340.325C680.267 326.661 687.916 319.607 697.124 319.607C706.332 319.532 713.981 326.81 713.981 340.325Z" fill="black"/>
<path d="M766.927 287.601C766.927 280.992 761.803 276.314 754.377 276.314C746.951 276.314 741.828 280.992 741.828 287.601C741.828 293.913 746.951 298.666 754.377 298.666C761.803 298.666 766.927 293.913 766.927 287.601ZM763.808 304.309H745.243V375.449C745.243 383.395 741.753 386.366 736.778 386.366C733.659 386.366 730.986 385.846 728.981 384.732V402.108C732.248 403.297 735.738 403.594 739.08 403.594C753.338 403.594 763.882 395.351 763.882 375.969L763.808 304.309Z" fill="black"/>
<path d="M823.364 376.266H838.587V330.968C838.587 313.295 827.523 302.973 808.661 302.973C791.284 302.973 779.329 313.74 778.215 330.3H795.072C795.74 322.206 800.567 317.527 808.661 317.527C816.458 317.527 821.062 322.206 821.062 330.3V334.607C816.607 334.087 813.117 333.79 809.107 333.79C788.091 333.79 776.804 341.365 776.804 355.325C776.804 368.766 786.755 377.529 801.755 377.529C811.557 377.529 818.76 374.039 823.439 367.281L823.364 376.266ZM794.403 354.805C794.403 348.345 799.676 345.003 810.295 345.003C813.562 345.003 816.607 345.3 821.062 345.969V351.092C821.062 359.41 815.27 364.682 805.691 364.682C798.71 364.682 794.403 360.895 794.403 354.805Z" fill="black"/>
<path d="M885.074 377.603C904.307 377.603 917.822 365.35 919.975 345.523H900.297C899.183 355.325 893.688 361.043 885.074 361.043C875.272 361.043 869.182 353.246 869.182 340.325C869.182 327.552 875.346 319.607 885.074 319.607C893.539 319.607 899.331 325.547 900.297 335.127H919.975C917.673 315.745 903.787 303.047 885.074 303.047C864.875 303.047 850.023 318.79 850.023 340.399C850.023 362.231 864.355 377.603 885.074 377.603Z" fill="black"/>
<path d="M950.718 376.266V342.85L978.194 376.266H1002.03L968.763 338.84L998.541 304.383H977.006L950.718 334.83V279.507H932.005V376.266H950.718Z" fill="black"/>
<path fill-rule="evenodd" clip-rule="evenodd" d="M370.619 414.312C457.344 412.628 462.958 378.106 462.958 370.247C462.958 362.389 421.7 355.653 370.619 355.653C319.538 355.653 278.281 362.108 278.281 370.247C278.281 378.387 283.894 415.996 370.619 414.312Z" fill="#FECB80"/>
<path d="M370.619 399.717C421.771 399.717 463.238 385.518 463.238 368.002C463.238 350.486 421.771 336.287 370.619 336.287C319.467 336.287 278 350.486 278 368.002C278 385.518 319.467 399.717 370.619 399.717Z" fill="#EE6D01"/>
<path fill-rule="evenodd" clip-rule="evenodd" d="M370.619 385.123C457.344 383.439 462.958 348.917 462.958 341.059C462.958 333.2 421.7 326.464 370.619 326.464C319.538 326.464 278.281 332.919 278.281 341.059C278.281 348.917 283.894 386.526 370.619 385.123Z" fill="#FECB80"/>
<path d="M370.619 370.528C421.771 370.528 463.238 356.328 463.238 338.813C463.238 321.297 421.771 307.098 370.619 307.098C319.467 307.098 278 321.297 278 338.813C278 356.328 319.467 370.528 370.619 370.528Z" fill="#EE6D01"/>
<path fill-rule="evenodd" clip-rule="evenodd" d="M370.619 355.653C457.344 353.969 462.958 319.447 462.958 311.588C462.958 303.73 421.7 296.994 370.619 296.994C319.538 296.994 278.281 303.73 278.281 311.588C278.281 319.447 283.894 357.337 370.619 355.653Z" fill="#FECB80"/>
<path d="M370.619 341.619C421.771 341.619 463.238 327.419 463.238 309.904C463.238 292.388 421.771 278.189 370.619 278.189C319.467 278.189 278 292.388 278 309.904C278 327.419 319.467 341.619 370.619 341.619Z" fill="#EE6D01"/>
<path fill-rule="evenodd" clip-rule="evenodd" d="M370.619 326.463C457.344 324.779 462.958 290.258 462.958 282.399C462.958 274.541 421.7 267.805 370.619 267.805C319.538 267.805 278.281 274.26 278.281 282.399C278.281 290.538 283.894 328.147 370.619 326.463Z" fill="#FECB80"/>
<path d="M370.619 312.43C421.771 312.43 463.238 298.231 463.238 280.715C463.238 263.199 421.771 249 370.619 249C319.467 249 278 263.199 278 280.715C278 298.231 319.467 312.43 370.619 312.43Z" fill="#EE6D01"/>
<path fill-rule="evenodd" clip-rule="evenodd" d="M370.619 263.876C400.088 263.876 424.787 270.05 428.435 278.19C428.716 278.751 428.997 279.593 428.997 280.435C428.997 288.294 416.367 290.819 409.35 293.907C407.105 295.029 405.421 297.836 404.86 300.643V372.773C404.86 379.509 399.527 385.123 392.791 385.123H392.51C385.774 385.123 380.161 379.509 380.161 372.773V306.256C378.758 296.713 364.725 292.784 360.795 306.256V327.586C360.795 334.322 355.463 339.936 348.727 339.936H348.446C341.71 339.936 336.097 334.603 336.097 327.867V327.586V300.923C336.097 298.117 334.694 295.871 331.606 293.626C325.712 291.381 311.96 288.013 311.679 280.435V280.154V279.874C312.521 271.173 338.623 263.876 370.619 263.876Z" fill="#BF360B"/>
<path d="M288.622 132.031L289.559 126.364H323.331L322.393 132.031H308.778L302.471 170H295.909L302.216 132.031H288.622ZM332.626 150.568L329.43 170H323.059L330.303 126.364H336.589L333.904 142.599H334.309C335.346 140.824 336.738 139.425 338.485 138.402C340.247 137.365 342.406 136.847 344.963 136.847C347.207 136.847 349.089 137.308 350.609 138.232C352.143 139.155 353.222 140.533 353.847 142.365C354.487 144.183 354.586 146.456 354.146 149.183L350.651 170H344.281L347.605 149.95C348.002 147.55 347.69 145.689 346.667 144.368C345.644 143.033 344.046 142.365 341.873 142.365C340.353 142.365 338.947 142.685 337.654 143.324C336.376 143.963 335.296 144.901 334.416 146.136C333.535 147.358 332.938 148.835 332.626 150.568ZM359.132 170L364.586 137.273H370.957L365.502 170H359.132ZM369.103 132.159C367.995 132.159 367.058 131.79 366.291 131.051C365.538 130.298 365.19 129.403 365.247 128.366C365.303 127.315 365.744 126.42 366.568 125.682C367.392 124.929 368.35 124.553 369.444 124.553C370.552 124.553 371.482 124.929 372.235 125.682C372.988 126.42 373.343 127.315 373.301 128.366C373.244 129.403 372.803 130.298 371.98 131.051C371.17 131.79 370.211 132.159 369.103 132.159ZM402.731 145.263L396.786 146.286C396.658 145.533 396.395 144.822 395.998 144.155C395.614 143.487 395.025 142.947 394.229 142.536C393.434 142.109 392.376 141.896 391.055 141.896C389.222 141.896 387.617 142.315 386.239 143.153C384.876 143.991 384.094 145.057 383.895 146.349C383.711 147.401 383.959 148.253 384.641 148.906C385.323 149.545 386.523 150.078 388.242 150.504L393.27 151.697C396.168 152.393 398.242 153.48 399.492 154.957C400.756 156.42 401.197 158.324 400.813 160.668C400.486 162.614 399.634 164.339 398.256 165.845C396.893 167.351 395.145 168.53 393.015 169.382C390.884 170.234 388.512 170.661 385.898 170.661C382.177 170.661 379.279 169.872 377.205 168.295C375.131 166.719 374.066 164.489 374.009 161.605L380.316 160.668C380.43 162.273 381.005 163.487 382.042 164.311C383.093 165.121 384.549 165.526 386.41 165.526C388.54 165.54 390.323 165.092 391.758 164.183C393.192 163.274 394.009 162.173 394.208 160.881C394.378 159.872 394.151 159.034 393.526 158.366C392.915 157.699 391.836 157.187 390.287 156.832L385.003 155.618C382.049 154.922 379.961 153.8 378.739 152.251C377.518 150.703 377.106 148.757 377.503 146.413C377.816 144.496 378.626 142.827 379.932 141.406C381.253 139.972 382.922 138.857 384.939 138.061C386.956 137.251 389.187 136.847 391.63 136.847C395.195 136.847 397.873 137.614 399.662 139.148C401.452 140.668 402.475 142.706 402.731 145.263ZM422.141 170L427.596 137.273H433.711L432.816 142.599H433.221C434.215 140.795 435.564 139.389 437.269 138.381C438.988 137.358 440.934 136.847 443.107 136.847C445.266 136.847 447.006 137.358 448.327 138.381C449.662 139.403 450.536 140.81 450.948 142.599H451.289C452.34 140.838 453.81 139.439 455.699 138.402C457.589 137.365 459.712 136.847 462.07 136.847C465.01 136.847 467.269 137.784 468.846 139.659C470.437 141.52 470.92 144.318 470.295 148.054L466.63 170H460.238L463.817 148.651C464.172 146.42 463.832 144.815 462.795 143.835C461.758 142.841 460.401 142.344 458.725 142.344C456.651 142.344 454.932 142.983 453.569 144.261C452.205 145.526 451.367 147.152 451.055 149.141L447.539 170H441.211L444.854 148.246C445.138 146.456 444.812 145.028 443.874 143.963C442.951 142.884 441.601 142.344 439.826 142.344C438.618 142.344 437.447 142.663 436.31 143.303C435.188 143.942 434.229 144.822 433.434 145.945C432.638 147.067 432.12 148.359 431.878 149.822L428.512 170H422.141ZM489.167 170.661C485.957 170.661 483.301 169.972 481.198 168.594C479.11 167.202 477.647 165.249 476.809 162.734C475.971 160.206 475.836 157.244 476.404 153.849C476.958 150.497 478.073 147.543 479.749 144.986C481.426 142.429 483.514 140.433 486.014 138.999C488.528 137.564 491.305 136.847 494.345 136.847C496.191 136.847 497.931 137.152 499.565 137.763C501.213 138.374 502.612 139.332 503.762 140.639C504.913 141.946 505.708 143.643 506.149 145.732C506.603 147.805 506.589 150.327 506.106 153.295L505.744 155.554H479.707L480.453 150.781H500.225C500.524 149.105 500.445 147.621 499.991 146.328C499.536 145.021 498.755 143.991 497.647 143.239C496.553 142.486 495.176 142.109 493.514 142.109C491.809 142.109 490.218 142.557 488.741 143.452C487.264 144.347 486.028 145.49 485.034 146.882C484.053 148.26 483.436 149.68 483.18 151.143L482.434 155.511C482.065 157.898 482.129 159.815 482.626 161.264C483.137 162.713 484.032 163.764 485.311 164.418C486.589 165.071 488.187 165.398 490.105 165.398C491.34 165.398 492.484 165.227 493.535 164.886C494.6 164.531 495.545 164.013 496.369 163.331C497.193 162.635 497.882 161.768 498.436 160.732L504.274 161.818C503.492 163.594 502.37 165.149 500.907 166.484C499.444 167.805 497.718 168.835 495.73 169.574C493.755 170.298 491.568 170.661 489.167 170.661ZM520.067 150.568L516.871 170H510.501L515.955 137.273H522.07L521.175 142.599H521.58C522.617 140.852 524.03 139.46 525.82 138.423C527.624 137.372 529.755 136.847 532.212 136.847C534.428 136.847 536.289 137.315 537.795 138.253C539.314 139.176 540.387 140.554 541.012 142.386C541.651 144.219 541.751 146.484 541.31 149.183L537.816 170H531.445L534.79 149.95C535.174 147.578 534.861 145.724 533.853 144.389C532.858 143.04 531.275 142.365 529.101 142.365C527.624 142.365 526.253 142.685 524.989 143.324C523.739 143.963 522.681 144.901 521.814 146.136C520.962 147.358 520.38 148.835 520.067 150.568ZM569.329 156.428L572.525 137.273H578.917L573.462 170H567.198L568.157 164.332H567.816C566.793 166.08 565.344 167.536 563.469 168.7C561.608 169.851 559.449 170.426 556.992 170.426C554.89 170.426 553.107 169.964 551.644 169.041C550.195 168.104 549.165 166.719 548.555 164.886C547.944 163.054 547.858 160.788 548.299 158.089L551.793 137.273H558.164L554.819 157.322C554.464 159.553 554.797 161.328 555.82 162.649C556.843 163.97 558.334 164.631 560.295 164.631C561.488 164.631 562.724 164.332 564.002 163.736C565.28 163.139 566.41 162.237 567.39 161.03C568.384 159.822 569.03 158.288 569.329 156.428ZM597.901 170L603.356 137.273H609.726L604.272 170H597.901ZM607.873 132.159C606.765 132.159 605.827 131.79 605.06 131.051C604.307 130.298 603.959 129.403 604.016 128.366C604.073 127.315 604.513 126.42 605.337 125.682C606.161 124.929 607.12 124.553 608.214 124.553C609.322 124.553 610.252 124.929 611.005 125.682C611.758 126.42 612.113 127.315 612.07 128.366C612.013 129.403 611.573 130.298 610.749 131.051C609.939 131.79 608.981 132.159 607.873 132.159ZM641.5 145.263L635.556 146.286C635.428 145.533 635.165 144.822 634.767 144.155C634.384 143.487 633.794 142.947 632.999 142.536C632.203 142.109 631.145 141.896 629.824 141.896C627.992 141.896 626.387 142.315 625.009 143.153C623.645 143.991 622.864 145.057 622.665 146.349C622.48 147.401 622.729 148.253 623.411 148.906C624.093 149.545 625.293 150.078 627.012 150.504L632.04 151.697C634.938 152.393 637.012 153.48 638.262 154.957C639.526 156.42 639.966 158.324 639.583 160.668C639.256 162.614 638.404 164.339 637.026 165.845C635.662 167.351 633.915 168.53 631.784 169.382C629.654 170.234 627.281 170.661 624.668 170.661C620.946 170.661 618.048 169.872 615.975 168.295C613.901 166.719 612.835 164.489 612.779 161.605L619.085 160.668C619.199 162.273 619.774 163.487 620.811 164.311C621.862 165.121 623.318 165.526 625.179 165.526C627.31 165.54 629.093 165.092 630.527 164.183C631.962 163.274 632.779 162.173 632.977 160.881C633.148 159.872 632.921 159.034 632.296 158.366C631.685 157.699 630.605 157.187 629.057 156.832L623.773 155.618C620.818 154.922 618.73 153.8 617.509 152.251C616.287 150.703 615.875 148.757 616.273 146.413C616.585 144.496 617.395 142.827 618.702 141.406C620.023 139.972 621.692 138.857 623.709 138.061C625.726 137.251 627.956 136.847 630.399 136.847C633.965 136.847 636.642 137.614 638.432 139.148C640.222 140.668 641.244 142.706 641.5 145.263ZM658.865 182.273L666.408 137.273H672.629L671.756 142.578H672.289C672.771 141.896 673.425 141.108 674.249 140.213C675.087 139.318 676.188 138.537 677.551 137.869C678.915 137.188 680.612 136.847 682.644 136.847C685.286 136.847 687.523 137.514 689.355 138.849C691.188 140.185 692.494 142.109 693.276 144.624C694.057 147.138 694.156 150.163 693.574 153.7C692.992 157.237 691.898 160.27 690.293 162.798C688.688 165.312 686.742 167.251 684.455 168.615C682.182 169.964 679.718 170.639 677.061 170.639C675.073 170.639 673.503 170.305 672.352 169.638C671.216 168.97 670.371 168.189 669.817 167.294C669.263 166.399 668.844 165.604 668.56 164.908H668.176L665.279 182.273H658.865ZM669.923 153.636C669.554 155.937 669.554 157.955 669.923 159.688C670.293 161.42 671.031 162.777 672.139 163.757C673.262 164.723 674.739 165.206 676.571 165.206C678.475 165.206 680.144 164.702 681.578 163.693C683.013 162.67 684.199 161.286 685.137 159.538C686.088 157.791 686.749 155.824 687.118 153.636C687.473 151.477 687.466 149.538 687.097 147.82C686.742 146.101 686.01 144.744 684.902 143.75C683.794 142.756 682.281 142.259 680.364 142.259C678.503 142.259 676.855 142.734 675.421 143.686C674 144.638 672.821 145.966 671.884 147.67C670.946 149.375 670.293 151.364 669.923 153.636ZM711.914 170.661C708.803 170.661 706.204 169.95 704.116 168.53C702.028 167.095 700.557 165.092 699.705 162.521C698.867 159.936 698.725 156.932 699.279 153.509C699.819 150.156 700.905 147.23 702.539 144.73C704.187 142.23 706.246 140.291 708.718 138.913C711.204 137.536 713.966 136.847 717.006 136.847C720.117 136.847 722.709 137.564 724.783 138.999C726.871 140.433 728.341 142.443 729.194 145.028C730.046 147.614 730.195 150.625 729.641 154.062C729.101 157.386 728.001 160.298 726.339 162.798C724.691 165.284 722.631 167.216 720.16 168.594C717.688 169.972 714.939 170.661 711.914 170.661ZM712.276 165.312C714.322 165.312 716.104 164.773 717.624 163.693C719.158 162.614 720.408 161.179 721.374 159.389C722.34 157.599 723.001 155.639 723.356 153.509C723.682 151.449 723.675 149.567 723.334 147.862C723.008 146.143 722.297 144.766 721.204 143.729C720.11 142.692 718.59 142.173 716.644 142.173C714.599 142.173 712.802 142.72 711.253 143.814C709.719 144.893 708.469 146.335 707.503 148.139C706.552 149.943 705.905 151.911 705.564 154.041C705.238 156.087 705.238 157.969 705.564 159.688C705.891 161.392 706.601 162.756 707.695 163.778C708.789 164.801 710.316 165.312 712.276 165.312ZM740.231 170L736.055 137.273H742.638L745.046 161.307H745.366L755.806 137.273H762.39L764.776 161.2H765.096L775.472 137.273H782.056L766.992 170H760.493L757.766 146.371H757.276L746.708 170H740.231ZM795.671 170.661C792.461 170.661 789.805 169.972 787.702 168.594C785.614 167.202 784.151 165.249 783.313 162.734C782.475 160.206 782.34 157.244 782.908 153.849C783.462 150.497 784.577 147.543 786.253 144.986C787.93 142.429 790.018 140.433 792.518 138.999C795.032 137.564 797.809 136.847 800.849 136.847C802.695 136.847 804.435 137.152 806.069 137.763C807.716 138.374 809.116 139.332 810.266 140.639C811.417 141.946 812.212 143.643 812.653 145.732C813.107 147.805 813.093 150.327 812.61 153.295L812.248 155.554H786.211L786.956 150.781H806.729C807.028 149.105 806.949 147.621 806.495 146.328C806.04 145.021 805.259 143.991 804.151 143.239C803.057 142.486 801.68 142.109 800.018 142.109C798.313 142.109 796.722 142.557 795.245 143.452C793.768 144.347 792.532 145.49 791.537 146.882C790.557 148.26 789.939 149.68 789.684 151.143L788.938 155.511C788.569 157.898 788.633 159.815 789.13 161.264C789.641 162.713 790.536 163.764 791.814 164.418C793.093 165.071 794.691 165.398 796.608 165.398C797.844 165.398 798.988 165.227 800.039 164.886C801.104 164.531 802.049 164.013 802.873 163.331C803.697 162.635 804.385 161.768 804.939 160.732L810.778 161.818C809.996 163.594 808.874 165.149 807.411 166.484C805.948 167.805 804.222 168.835 802.233 169.574C800.259 170.298 798.072 170.661 795.671 170.661ZM816.983 170L822.438 137.273H828.595L827.722 142.472H828.063C828.943 140.71 830.229 139.325 831.919 138.317C833.61 137.294 835.414 136.783 837.331 136.783C837.743 136.783 838.212 136.797 838.737 136.825C839.263 136.839 839.689 136.875 840.016 136.932L838.993 143.026C838.752 142.955 838.311 142.876 837.672 142.791C837.033 142.692 836.372 142.642 835.691 142.642C834.199 142.642 832.814 142.962 831.536 143.601C830.257 144.226 829.185 145.099 828.318 146.222C827.452 147.33 826.891 148.594 826.635 150.014L823.354 170H816.983ZM852.976 170.661C849.765 170.661 847.109 169.972 845.007 168.594C842.919 167.202 841.456 165.249 840.618 162.734C839.78 160.206 839.645 157.244 840.213 153.849C840.767 150.497 841.882 147.543 843.558 144.986C845.234 142.429 847.322 140.433 849.822 138.999C852.336 137.564 855.113 136.847 858.153 136.847C860 136.847 861.74 137.152 863.373 137.763C865.021 138.374 866.42 139.332 867.571 140.639C868.721 141.946 869.517 143.643 869.957 145.732C870.412 147.805 870.398 150.327 869.915 153.295L869.552 155.554H843.515L844.261 150.781H864.034C864.332 149.105 864.254 147.621 863.8 146.328C863.345 145.021 862.564 143.991 861.456 143.239C860.362 142.486 858.984 142.109 857.322 142.109C855.618 142.109 854.027 142.557 852.55 143.452C851.072 144.347 849.836 145.49 848.842 146.882C847.862 148.26 847.244 149.68 846.988 151.143L846.243 155.511C845.873 157.898 845.937 159.815 846.434 161.264C846.946 162.713 847.841 163.764 849.119 164.418C850.398 165.071 851.996 165.398 853.913 165.398C855.149 165.398 856.292 165.227 857.344 164.886C858.409 164.531 859.354 164.013 860.177 163.331C861.001 162.635 861.69 161.768 862.244 160.732L868.082 161.818C867.301 163.594 866.179 165.149 864.716 166.484C863.253 167.805 861.527 168.835 859.538 169.574C857.564 170.298 855.376 170.661 852.976 170.661ZM886.497 170.639C883.84 170.639 881.589 169.964 879.742 168.615C877.91 167.251 876.61 165.312 875.843 162.798C875.09 160.27 875.005 157.237 875.588 153.7C876.184 150.163 877.285 147.138 878.89 144.624C880.495 142.109 882.441 140.185 884.728 138.849C887.015 137.514 889.48 136.847 892.122 136.847C894.153 136.847 895.73 137.188 896.852 137.869C897.988 138.537 898.826 139.318 899.366 140.213C899.906 141.108 900.311 141.896 900.58 142.578H900.943L903.649 126.364H910.019L902.775 170H896.553L897.427 164.908H896.894C896.397 165.604 895.708 166.399 894.828 167.294C893.961 168.189 892.853 168.97 891.504 169.638C890.154 170.305 888.485 170.639 886.497 170.639ZM888.649 165.206C890.481 165.206 892.122 164.723 893.57 163.757C895.034 162.777 896.248 161.42 897.214 159.688C898.194 157.955 898.876 155.937 899.259 153.636C899.643 151.364 899.636 149.375 899.238 147.67C898.84 145.966 898.073 144.638 896.937 143.686C895.801 142.734 894.302 142.259 892.441 142.259C890.524 142.259 888.855 142.756 887.434 143.75C886.014 144.744 884.849 146.101 883.94 147.82C883.045 149.538 882.42 151.477 882.065 153.636C881.695 155.824 881.681 157.791 882.022 159.538C882.363 161.286 883.08 162.67 884.174 163.693C885.268 164.702 886.759 165.206 888.649 165.206ZM928.237 170L935.481 126.364H941.852L939.188 142.578H939.572C940.055 141.896 940.715 141.108 941.553 140.213C942.406 139.318 943.507 138.537 944.856 137.869C946.205 137.188 947.896 136.847 949.927 136.847C952.569 136.847 954.813 137.514 956.66 138.849C958.507 140.185 959.813 142.109 960.58 144.624C961.347 147.138 961.44 150.163 960.857 153.7C960.275 157.237 959.181 160.27 957.576 162.798C955.985 165.312 954.046 167.251 951.759 168.615C949.472 169.964 947.008 170.639 944.366 170.639C942.377 170.639 940.808 170.305 939.657 169.638C938.521 168.97 937.669 168.189 937.1 167.294C936.546 166.399 936.127 165.604 935.843 164.908H935.311L934.458 170H928.237ZM937.207 153.636C936.838 155.937 936.838 157.955 937.207 159.688C937.59 161.42 938.336 162.777 939.444 163.757C940.566 164.723 942.036 165.206 943.855 165.206C945.758 165.206 947.434 164.702 948.883 163.693C950.332 162.67 951.525 161.286 952.463 159.538C953.4 157.791 954.053 155.824 954.423 153.636C954.764 151.477 954.757 149.538 954.401 147.82C954.046 146.101 953.308 144.744 952.186 143.75C951.078 142.756 949.565 142.259 947.647 142.259C945.801 142.259 944.16 142.734 942.725 143.686C941.291 144.638 940.105 145.966 939.167 147.67C938.23 149.375 937.576 151.364 937.207 153.636ZM966.195 182.273C965.229 182.273 964.369 182.195 963.617 182.038C962.864 181.896 962.303 181.74 961.933 181.57L964.362 176.349C965.485 176.662 966.486 176.783 967.367 176.712C968.262 176.641 969.1 176.271 969.881 175.604C970.662 174.936 971.458 173.885 972.267 172.45L973.46 170.298L967.047 137.273H973.61L977.658 162.734H977.999L990.527 137.273H997.622L977.999 174.325C977.075 176.087 976.024 177.55 974.845 178.714C973.681 179.893 972.374 180.781 970.925 181.378C969.49 181.974 967.914 182.273 966.195 182.273Z" fill="black"/>
<path d="M414.335 532L404.704 499.273H411.288L417.701 523.307H418.021L424.456 499.273H431.039L437.431 523.2H437.751L444.122 499.273H450.706L441.096 532H434.598L427.95 508.371H427.46L420.812 532H414.335ZM463.847 532L454.216 499.273H460.8L467.213 523.307H467.533L473.967 499.273H480.551L486.943 523.2H487.263L493.634 499.273H500.217L490.608 532H484.109L477.462 508.371H476.972L470.324 532H463.847ZM513.358 532L503.728 499.273H510.311L516.725 523.307H517.044L523.479 499.273H530.063L536.455 523.2H536.775L543.145 499.273H549.729L540.12 532H533.621L526.973 508.371H526.483L519.836 532H513.358ZM555.519 532.405C554.354 532.405 553.353 531.993 552.515 531.169C551.677 530.331 551.258 529.322 551.258 528.143C551.258 526.979 551.677 525.984 552.515 525.161C553.353 524.322 554.354 523.903 555.519 523.903C556.684 523.903 557.685 524.322 558.523 525.161C559.362 525.984 559.781 526.979 559.781 528.143C559.781 528.925 559.582 529.642 559.184 530.295C558.8 530.935 558.289 531.446 557.65 531.83C557.011 532.213 556.3 532.405 555.519 532.405ZM583.889 499.273V504.386H565.395V499.273H583.889ZM570.466 532V495.48C570.466 493.435 570.913 491.737 571.808 490.388C572.703 489.024 573.889 488.009 575.366 487.341C576.844 486.659 578.449 486.318 580.182 486.318C581.46 486.318 582.554 486.425 583.463 486.638C584.372 486.837 585.047 487.021 585.487 487.192L583.996 492.348C583.697 492.263 583.314 492.163 582.845 492.05C582.376 491.922 581.808 491.858 581.141 491.858C579.592 491.858 578.484 492.241 577.817 493.009C577.163 493.776 576.837 494.884 576.837 496.332V532H570.466ZM596.833 488.364V532H590.462V488.364H596.833ZM614.928 532.724C612.854 532.724 610.979 532.341 609.303 531.574C607.627 530.793 606.299 529.663 605.319 528.186C604.353 526.709 603.87 524.898 603.87 522.753C603.87 520.906 604.225 519.386 604.935 518.193C605.645 517 606.604 516.055 607.811 515.359C609.019 514.663 610.368 514.138 611.86 513.783C613.351 513.428 614.871 513.158 616.419 512.973C618.38 512.746 619.971 512.561 621.192 512.419C622.414 512.263 623.301 512.014 623.855 511.673C624.409 511.332 624.686 510.778 624.686 510.011V509.862C624.686 508.001 624.161 506.56 623.11 505.537C622.073 504.514 620.525 504.003 618.465 504.003C616.32 504.003 614.63 504.479 613.394 505.43C612.172 506.368 611.327 507.412 610.858 508.562L604.871 507.199C605.581 505.21 606.618 503.605 607.982 502.384C609.36 501.148 610.944 500.253 612.733 499.699C614.523 499.131 616.405 498.847 618.38 498.847C619.686 498.847 621.071 499.003 622.534 499.315C624.012 499.614 625.39 500.168 626.668 500.977C627.961 501.787 629.019 502.945 629.843 504.45C630.667 505.942 631.078 507.881 631.078 510.267V532H624.857V527.526H624.601C624.189 528.349 623.571 529.159 622.748 529.955C621.924 530.75 620.865 531.411 619.573 531.936C618.28 532.462 616.732 532.724 614.928 532.724ZM616.313 527.611C618.074 527.611 619.58 527.263 620.83 526.567C622.094 525.871 623.053 524.962 623.706 523.839C624.374 522.703 624.708 521.489 624.708 520.196V515.977C624.48 516.205 624.04 516.418 623.387 516.616C622.748 516.801 622.016 516.964 621.192 517.107C620.368 517.234 619.566 517.355 618.784 517.469C618.003 517.568 617.35 517.653 616.824 517.724C615.588 517.881 614.459 518.143 613.436 518.513C612.428 518.882 611.618 519.415 611.007 520.111C610.411 520.793 610.113 521.702 610.113 522.838C610.113 524.415 610.695 525.608 611.86 526.418C613.025 527.213 614.509 527.611 616.313 527.611ZM639.564 544.273V499.273H645.786V504.578H646.318C646.688 503.896 647.22 503.108 647.916 502.213C648.612 501.318 649.578 500.537 650.814 499.869C652.05 499.188 653.683 498.847 655.714 498.847C658.357 498.847 660.714 499.514 662.788 500.849C664.862 502.185 666.489 504.109 667.668 506.624C668.861 509.138 669.457 512.163 669.457 515.7C669.457 519.237 668.868 522.27 667.689 524.798C666.51 527.312 664.891 529.251 662.831 530.615C660.771 531.964 658.42 532.639 655.778 532.639C653.79 532.639 652.163 532.305 650.899 531.638C649.649 530.97 648.669 530.189 647.959 529.294C647.249 528.399 646.702 527.604 646.318 526.908H645.935V544.273H639.564ZM645.807 515.636C645.807 517.937 646.141 519.955 646.808 521.688C647.476 523.42 648.442 524.777 649.706 525.757C650.97 526.723 652.518 527.206 654.351 527.206C656.254 527.206 657.845 526.702 659.124 525.693C660.402 524.67 661.368 523.286 662.021 521.538C662.689 519.791 663.023 517.824 663.023 515.636C663.023 513.477 662.696 511.538 662.043 509.82C661.403 508.101 660.438 506.744 659.145 505.75C657.866 504.756 656.268 504.259 654.351 504.259C652.504 504.259 650.942 504.734 649.663 505.686C648.399 506.638 647.44 507.966 646.787 509.67C646.134 511.375 645.807 513.364 645.807 515.636ZM676.595 499.273H682.966V534.131C682.966 536.318 682.568 538.165 681.773 539.67C680.991 541.176 679.827 542.32 678.278 543.101C676.744 543.882 674.848 544.273 672.589 544.273C672.362 544.273 672.149 544.273 671.95 544.273C671.737 544.273 671.517 544.266 671.29 544.251V538.776C671.489 538.776 671.666 538.776 671.822 538.776C671.964 538.776 672.128 538.776 672.312 538.776C673.818 538.776 674.905 538.371 675.572 537.561C676.254 536.766 676.595 535.608 676.595 534.088V499.273ZM679.749 494.223C678.641 494.223 677.689 493.854 676.893 493.115C676.112 492.362 675.722 491.467 675.722 490.43C675.722 489.379 676.112 488.484 676.893 487.746C677.689 486.993 678.641 486.616 679.749 486.616C680.857 486.616 681.801 486.993 682.582 487.746C683.378 488.484 683.776 489.379 683.776 490.43C683.776 491.467 683.378 492.362 682.582 493.115C681.801 493.854 680.857 494.223 679.749 494.223ZM701.061 532.724C698.987 532.724 697.112 532.341 695.436 531.574C693.76 530.793 692.431 529.663 691.451 528.186C690.485 526.709 690.002 524.898 690.002 522.753C690.002 520.906 690.358 519.386 691.068 518.193C691.778 517 692.737 516.055 693.944 515.359C695.152 514.663 696.501 514.138 697.993 513.783C699.484 513.428 701.004 513.158 702.552 512.973C704.512 512.746 706.103 512.561 707.325 512.419C708.547 512.263 709.434 512.014 709.988 511.673C710.542 511.332 710.819 510.778 710.819 510.011V509.862C710.819 508.001 710.294 506.56 709.243 505.537C708.206 504.514 706.657 504.003 704.598 504.003C702.453 504.003 700.762 504.479 699.527 505.43C698.305 506.368 697.46 507.412 696.991 508.562L691.004 507.199C691.714 505.21 692.751 503.605 694.115 502.384C695.493 501.148 697.076 500.253 698.866 499.699C700.656 499.131 702.538 498.847 704.512 498.847C705.819 498.847 707.204 499.003 708.667 499.315C710.145 499.614 711.522 500.168 712.801 500.977C714.093 501.787 715.152 502.945 715.975 504.45C716.799 505.942 717.211 507.881 717.211 510.267V532H710.99V527.526H710.734C710.322 528.349 709.704 529.159 708.88 529.955C708.056 530.75 706.998 531.411 705.706 531.936C704.413 532.462 702.865 532.724 701.061 532.724ZM702.446 527.611C704.207 527.611 705.713 527.263 706.963 526.567C708.227 525.871 709.186 524.962 709.839 523.839C710.507 522.703 710.841 521.489 710.841 520.196V515.977C710.613 516.205 710.173 516.418 709.52 516.616C708.88 516.801 708.149 516.964 707.325 517.107C706.501 517.234 705.699 517.355 704.917 517.469C704.136 517.568 703.483 517.653 702.957 517.724C701.721 517.881 700.592 518.143 699.569 518.513C698.561 518.882 697.751 519.415 697.14 520.111C696.544 520.793 696.245 521.702 696.245 522.838C696.245 524.415 696.828 525.608 697.993 526.418C699.157 527.213 700.642 527.611 702.446 527.611ZM739.482 532.661C736.315 532.661 733.587 531.943 731.3 530.509C729.028 529.06 727.281 527.064 726.059 524.521C724.837 521.979 724.227 519.067 724.227 515.786C724.227 512.462 724.852 509.528 726.102 506.986C727.352 504.429 729.113 502.433 731.386 500.999C733.658 499.564 736.336 498.847 739.418 498.847C741.904 498.847 744.12 499.308 746.066 500.232C748.012 501.141 749.582 502.419 750.775 504.067C751.982 505.714 752.7 507.639 752.927 509.841H746.727C746.386 508.307 745.604 506.986 744.383 505.878C743.175 504.77 741.556 504.216 739.525 504.216C737.749 504.216 736.194 504.685 734.859 505.622C733.538 506.545 732.508 507.866 731.769 509.585C731.031 511.29 730.661 513.307 730.661 515.636C730.661 518.023 731.023 520.082 731.748 521.815C732.472 523.548 733.495 524.891 734.816 525.842C736.151 526.794 737.721 527.27 739.525 527.27C740.732 527.27 741.826 527.05 742.806 526.609C743.8 526.155 744.631 525.509 745.299 524.67C745.981 523.832 746.457 522.824 746.727 521.645H752.927C752.7 523.761 752.011 525.651 750.86 527.312C749.71 528.974 748.168 530.281 746.237 531.233C744.319 532.185 742.067 532.661 739.482 532.661ZM765.599 520.899L765.556 513.122H766.664L779.704 499.273H787.332L772.46 515.04H771.458L765.599 520.899ZM759.74 532V488.364H766.11V532H759.74ZM780.407 532L768.689 516.446L773.078 511.993L788.227 532H780.407ZM797.336 532.405C796.171 532.405 795.169 531.993 794.331 531.169C793.493 530.331 793.074 529.322 793.074 528.143C793.074 526.979 793.493 525.984 794.331 525.161C795.169 524.322 796.171 523.903 797.336 523.903C798.5 523.903 799.502 524.322 800.34 525.161C801.178 525.984 801.597 526.979 801.597 528.143C801.597 528.925 801.398 529.642 801 530.295C800.617 530.935 800.105 531.446 799.466 531.83C798.827 532.213 798.117 532.405 797.336 532.405ZM823.916 532.661C820.748 532.661 818.021 531.943 815.734 530.509C813.461 529.06 811.714 527.064 810.493 524.521C809.271 521.979 808.66 519.067 808.66 515.786C808.66 512.462 809.285 509.528 810.535 506.986C811.785 504.429 813.547 502.433 815.819 500.999C818.092 499.564 820.77 498.847 823.852 498.847C826.338 498.847 828.554 499.308 830.5 500.232C832.446 501.141 834.015 502.419 835.208 504.067C836.416 505.714 837.133 507.639 837.36 509.841H831.16C830.819 508.307 830.038 506.986 828.816 505.878C827.609 504.77 825.99 504.216 823.958 504.216C822.183 504.216 820.627 504.685 819.292 505.622C817.971 506.545 816.941 507.866 816.203 509.585C815.464 511.29 815.095 513.307 815.095 515.636C815.095 518.023 815.457 520.082 816.181 521.815C816.906 523.548 817.929 524.891 819.25 525.842C820.585 526.794 822.154 527.27 823.958 527.27C825.166 527.27 826.26 527.05 827.24 526.609C828.234 526.155 829.065 525.509 829.733 524.67C830.414 523.832 830.89 522.824 831.16 521.645H837.36C837.133 523.761 836.444 525.651 835.294 527.312C834.143 528.974 832.602 530.281 830.67 531.233C828.752 532.185 826.501 532.661 823.916 532.661ZM857.959 532.661C854.891 532.661 852.213 531.957 849.926 530.551C847.639 529.145 845.864 527.178 844.599 524.649C843.335 522.121 842.703 519.166 842.703 515.786C842.703 512.391 843.335 509.422 844.599 506.879C845.864 504.337 847.639 502.362 849.926 500.956C852.213 499.55 854.891 498.847 857.959 498.847C861.027 498.847 863.705 499.55 865.991 500.956C868.278 502.362 870.054 504.337 871.318 506.879C872.582 509.422 873.214 512.391 873.214 515.786C873.214 519.166 872.582 522.121 871.318 524.649C870.054 527.178 868.278 529.145 865.991 530.551C863.705 531.957 861.027 532.661 857.959 532.661ZM857.98 527.312C859.969 527.312 861.616 526.787 862.923 525.736C864.23 524.685 865.196 523.286 865.821 521.538C866.46 519.791 866.78 517.866 866.78 515.764C866.78 513.676 866.46 511.759 865.821 510.011C865.196 508.25 864.23 506.837 862.923 505.771C861.616 504.706 859.969 504.173 857.98 504.173C855.977 504.173 854.315 504.706 852.994 505.771C851.688 506.837 850.714 508.25 850.075 510.011C849.45 511.759 849.138 513.676 849.138 515.764C849.138 517.866 849.45 519.791 850.075 521.538C850.714 523.286 851.688 524.685 852.994 525.736C854.315 526.787 855.977 527.312 857.98 527.312Z" fill="black"/>
</svg>
